STARTFONT 2.1
FONT -FontForge-Gotham Black-Black-R-Normal--25-240-75-75-P-153-ISO10646-1
SIZE 24 75 75
FONTBOUNDINGBOX 33 27 -2 -4
COMMENT "Generated by fontforge, http://fontforge.sourceforge.net"
COMMENT "HTF Gotham  Copr. 2003 The Hoefler Type Foundry, Inc. Info: www.typography.com"
STARTPROPERTIES 39
FOUNDRY "FontForge"
FAMILY_NAME "Gotham Black"
WEIGHT_NAME "Black"
SLANT "R"
SETWIDTH_NAME "Normal"
ADD_STYLE_NAME ""
PIXEL_SIZE 25
POINT_SIZE 240
RESOLUTION_X 75
RESOLUTION_Y 75
SPACING "P"
AVERAGE_WIDTH 153
CHARSET_REGISTRY "ISO10646"
CHARSET_ENCODING "1"
FONTNAME_REGISTRY ""
CHARSET_COLLECTIONS "ISO10646-1"
FONT_NAME "GothamBlack"
FACE_NAME "Gotham Black"
COPYRIGHT "HTF Gotham  Copr. 2003 The Hoefler Type Foundry, Inc. Info: www.typography.com"
FONT_VERSION "001.000"
FONT_ASCENT 20
FONT_DESCENT 5
UNDERLINE_POSITION -3
UNDERLINE_THICKNESS 1
X_HEIGHT 13
CAP_HEIGHT 17
RAW_ASCENT 800
RAW_DESCENT 200
NORM_SPACE 7
RELATIVE_WEIGHT 90
RELATIVE_SETWIDTH 50
SUPERSCRIPT_X 0
SUPERSCRIPT_Y 11
SUPERSCRIPT_SIZE 16
SUBSCRIPT_X 0
SUBSCRIPT_Y 3
SUBSCRIPT_SIZE 16
AVG_LOWERCASE_WIDTH 150
AVG_UPPERCASE_WIDTH 181
ENDPROPERTIES
CHARS 233
STARTCHAR space
ENCODING 32
SWIDTH 277 0
DWIDTH 7 0
BBX 1 1 0 0
BITMAP
00
ENDCHAR
STARTCHAR exclam
ENCODING 33
SWIDTH 324 0
DWIDTH 8 0
BBX 6 18 1 0
BITMAP
FC
FC
FC
7C
78
78
78
78
78
78
38
30
00
00
7C
7C
7C
7C
ENDCHAR
STARTCHAR quotedbl
ENCODING 34
SWIDTH 537 0
DWIDTH 13 0
BBX 12 9 1 9
BITMAP
FDF0
F9E0
F9E0
F1E0
F1C0
F3C0
E3C0
E380
E380
ENDCHAR
STARTCHAR numbersign
ENCODING 35
SWIDTH 706 0
DWIDTH 18 0
BBX 16 18 1 0
BITMAP
0F1E
0F1C
0E1C
0E3C
7FFF
7FFF
7FFF
7FFF
1C38
1C78
3C78
FFFE
FFFE
FFFE
FFFE
38F0
78F0
78F0
ENDCHAR
STARTCHAR dollar
ENCODING 36
SWIDTH 666 0
DWIDTH 17 0
BBX 15 21 1 -2
BITMAP
0180
0380
1FF8
7FFC
7FFC
F9B8
F990
FF80
FFE0
7FF8
3FFC
07FE
01FE
21BE
7DBE
7FFE
FFFC
1FF8
01C0
0180
0180
ENDCHAR
STARTCHAR percent
ENCODING 37
SWIDTH 899 0
DWIDTH 22 0
BBX 21 18 1 0
BITMAP
3E01E0
7F03C0
7F0380
E78780
E38F00
E39E00
F79C00
7F3800
7F7800
3EF3E0
00E7F0
01CFF8
03CE38
078E38
0F0E38
0E0FF8
1E07F0
3C03E0
ENDCHAR
STARTCHAR ampersand
ENCODING 38
SWIDTH 698 0
DWIDTH 17 0
BBX 17 18 0 0
BITMAP
07E000
0FF800
1FF800
3FFC00
3E3C00
3E3C00
3E3C00
1FF800
3FE200
7FE780
7FF780
F9FF00
F8FF00
FC7E00
FFFF00
7FFF80
3FFF00
0FC600
ENDCHAR
STARTCHAR quotesingle
ENCODING 39
SWIDTH 284 0
DWIDTH 7 0
BBX 6 9 1 9
BITMAP
FC
F8
F8
F0
F0
F0
E0
E0
E0
ENDCHAR
STARTCHAR parenleft
ENCODING 40
SWIDTH 445 0
DWIDTH 11 0
BBX 10 22 1 -4
BITMAP
0100
0780
0F80
1FC0
3F00
7E00
7C00
FC00
F800
F800
F800
F800
F800
F800
FC00
7C00
7E00
3F00
1F80
0FC0
0780
0100
ENDCHAR
STARTCHAR parenright
ENCODING 41
SWIDTH 445 0
DWIDTH 11 0
BBX 10 22 0 -4
BITMAP
2000
7800
7C00
FE00
3F00
1F80
0F80
0F80
07C0
07C0
07C0
07C0
07C0
07C0
0FC0
0F80
1F80
3F00
7E00
FC00
7800
2000
ENDCHAR
STARTCHAR asterisk
ENCODING 42
SWIDTH 425 0
DWIDTH 11 0
BBX 9 10 1 8
BITMAP
1C00
9900
DB00
EF80
3E00
3E00
EF80
DB00
9900
1C00
ENDCHAR
STARTCHAR plus
ENCODING 43
SWIDTH 640 0
DWIDTH 16 0
BBX 13 13 2 2
BITMAP
0F80
0F80
0F80
0F80
FFF8
FFF8
FFF8
FFF8
0F80
0F80
0F80
0F80
0F80
ENDCHAR
STARTCHAR comma
ENCODING 44
SWIDTH 284 0
DWIDTH 7 0
BBX 6 8 0 -4
BITMAP
7C
7C
7C
7C
1C
3C
F8
70
ENDCHAR
STARTCHAR hyphen
ENCODING 45
SWIDTH 408 0
DWIDTH 10 0
BBX 8 4 1 6
BITMAP
FF
FF
FF
FF
ENDCHAR
STARTCHAR period
ENCODING 46
SWIDTH 284 0
DWIDTH 7 0
BBX 5 4 1 0
BITMAP
F8
F8
F8
F8
ENDCHAR
STARTCHAR slash
ENCODING 47
SWIDTH 535 0
DWIDTH 13 0
BBX 15 23 -1 -3
BITMAP
001E
003C
003C
0078
0078
00F0
00F0
01E0
01E0
01C0
03C0
0380
0780
0700
0F00
0F00
1E00
1E00
3C00
3C00
7800
7800
F000
ENDCHAR
STARTCHAR zero
ENCODING 48
SWIDTH 730 0
DWIDTH 18 0
BBX 16 18 1 0
BITMAP
07E0
1FF8
3FFC
3FFC
7E7E
7C3E
F81F
F81F
F81F
F81F
F81F
F81F
7C3E
7E7E
7FFC
3FFC
1FF8
07E0
ENDCHAR
STARTCHAR one
ENCODING 49
SWIDTH 422 0
DWIDTH 11 0
BBX 9 18 0 0
BITMAP
0F80
FF80
FF80
7F80
7F80
0F80
0F80
0F80
0F80
0F80
0F80
0F80
0F80
0F80
0F80
0F80
0F80
0F80
ENDCHAR
STARTCHAR two
ENCODING 50
SWIDTH 624 0
DWIDTH 16 0
BBX 14 18 1 0
BITMAP
0FC0
3FF0
7FF8
FFFC
78FC
107C
007C
00FC
01F8
03F8
07F0
0FC0
3F80
7F00
FFFC
FFFC
FFFC
FFFC
ENDCHAR
STARTCHAR three
ENCODING 51
SWIDTH 621 0
DWIDTH 16 0
BBX 14 18 1 0
BITMAP
7FF8
7FF8
7FF8
7FF8
01F0
03E0
07C0
0FE0
1FF0
0FF8
01FC
007C
207C
78FC
FFF8
FFF8
7FF0
1FC0
ENDCHAR
STARTCHAR four
ENCODING 52
SWIDTH 689 0
DWIDTH 17 0
BBX 16 18 0 0
BITMAP
00FC
00FC
01FC
03FC
07FC
0FFC
0FFC
1F7C
3E7C
7C7C
F87C
FFFF
FFFF
FFFF
FFFF
007C
007C
007C
ENDCHAR
STARTCHAR five
ENCODING 53
SWIDTH 630 0
DWIDTH 16 0
BBX 15 18 0 0
BITMAP
3FFC
3FFC
3FFC
3FFC
3C00
3C00
3FE0
3FF8
3FFC
3FFE
087E
003E
103E
387E
7FFC
FFFC
3FF8
0FE0
ENDCHAR
STARTCHAR six
ENCODING 54
SWIDTH 662 0
DWIDTH 17 0
BBX 15 18 1 0
BITMAP
07E0
1FF8
3FFC
7FF8
7C30
7C00
F9F0
FFF8
FFFC
FFFE
FC7E
F83E
F83E
7C7E
7FFC
3FFC
1FF8
07E0
ENDCHAR
STARTCHAR seven
ENCODING 55
SWIDTH 614 0
DWIDTH 15 0
BBX 14 18 1 0
BITMAP
FFFC
FFFC
FFFC
FFFC
00F8
01F8
01F0
03F0
03E0
07E0
07C0
0F80
0F80
1F00
3F00
3E00
7E00
7C00
ENDCHAR
STARTCHAR eight
ENCODING 56
SWIDTH 630 0
DWIDTH 16 0
BBX 14 18 1 0
BITMAP
0FC0
3FF0
7FF8
FFFC
F87C
F87C
F87C
7FF8
1FF0
3FF8
7FF8
F87C
F87C
F87C
FFFC
7FF8
3FF0
0FC0
ENDCHAR
STARTCHAR nine
ENCODING 57
SWIDTH 662 0
DWIDTH 17 0
BBX 15 18 1 0
BITMAP
0FC0
3FF0
7FF8
7FFC
FC7C
F83E
F83E
FC7E
FFFE
7FFE
3FFE
1F3E
007C
30FC
3FF8
7FF8
7FF0
0FC0
ENDCHAR
STARTCHAR colon
ENCODING 58
SWIDTH 294 0
DWIDTH 7 0
BBX 5 14 1 0
BITMAP
F8
F8
F8
F8
00
00
00
00
00
00
F8
F8
F8
F8
ENDCHAR
STARTCHAR semicolon
ENCODING 59
SWIDTH 294 0
DWIDTH 7 0
BBX 6 18 0 -4
BITMAP
7C
7C
7C
7C
00
00
00
00
00
00
7C
7C
7C
7C
1C
3C
F8
70
ENDCHAR
STARTCHAR less
ENCODING 60
SWIDTH 644 0
DWIDTH 16 0
BBX 12 14 2 2
BITMAP
0010
00F0
03F0
1FF0
FFF0
FF00
F800
F800
FF80
7FF0
1FF0
03F0
00F0
0010
ENDCHAR
STARTCHAR equal
ENCODING 61
SWIDTH 639 0
DWIDTH 16 0
BBX 12 11 2 3
BITMAP
FFF0
FFF0
FFF0
FFF0
0000
0000
0000
FFF0
FFF0
FFF0
FFF0
ENDCHAR
STARTCHAR greater
ENCODING 62
SWIDTH 644 0
DWIDTH 16 0
BBX 12 14 2 2
BITMAP
8000
F000
FC00
FF80
7FF0
0FF0
01F0
01F0
0FF0
7FF0
FF80
FC00
F000
8000
ENDCHAR
STARTCHAR question
ENCODING 63
SWIDTH 540 0
DWIDTH 14 0
BBX 13 18 0 0
BITMAP
1F80
7FE0
FFF0
7FF8
30F8
20F8
01F8
0FF0
0FF0
0FC0
0F00
0700
0000
0000
0F80
0F80
0F80
0F80
ENDCHAR
STARTCHAR at
ENCODING 64
SWIDTH 965 0
DWIDTH 24 0
BBX 22 22 1 -4
BITMAP
00FC00
070380
0C0040
100020
200010
60F008
41FBC8
43FFC4
83FFC4
87E7C4
87C784
87C784
87CF84
87FF88
43FF88
43F7F0
61E1E0
200000
100000
0C0080
0701C0
00FE00
ENDCHAR
STARTCHAR A
ENCODING 65
SWIDTH 795 0
DWIDTH 20 0
BBX 20 18 0 0
BITMAP
01F000
01F800
01F800
03FC00
03FC00
07FE00
07FE00
0FBE00
0F9F00
0F9F00
1F0F80
1FFF80
3FFF80
3FFFC0
3FFFC0
7C07E0
7C03E0
F803F0
ENDCHAR
STARTCHAR B
ENCODING 66
SWIDTH 715 0
DWIDTH 18 0
BBX 16 18 1 0
BITMAP
FFF8
FFFE
FFFE
FFFF
F83F
F81F
F83F
FFFE
FFF8
FFFE
FFFE
F81F
F81F
F81F
FFFF
FFFE
FFFC
FFF8
ENDCHAR
STARTCHAR C
ENCODING 67
SWIDTH 730 0
DWIDTH 18 0
BBX 17 18 1 0
BITMAP
03F800
0FFE00
1FFF00
3FFF80
7E1E00
7C0C00
FC0000
F80000
F80000
F80000
F80000
FC0000
7C0400
7E1E00
3FFF80
1FFF00
0FFE00
03F000
ENDCHAR
STARTCHAR D
ENCODING 68
SWIDTH 765 0
DWIDTH 19 0
BBX 16 18 2 0
BITMAP
FFC0
FFF0
FFFC
FFFC
F87E
F83E
F81F
F81F
F81F
F81F
F81F
F81F
F83E
F87E
FFFC
FFF8
FFF0
FFC0
ENDCHAR
STARTCHAR E
ENCODING 69
SWIDTH 667 0
DWIDTH 17 0
BBX 14 18 1 0
BITMAP
FFFC
FFFC
FFFC
FFFC
F800
F800
F800
FFF8
FFF8
FFF8
FFF8
F800
F800
F800
FFFC
FFFC
FFFC
FFFC
ENDCHAR
STARTCHAR F
ENCODING 70
SWIDTH 648 0
DWIDTH 16 0
BBX 14 18 1 0
BITMAP
FFFC
FFFC
FFFC
FFFC
F800
F800
F800
F800
FFF8
FFF8
FFF8
FFF8
F800
F800
F800
F800
F800
F800
ENDCHAR
STARTCHAR G
ENCODING 71
SWIDTH 769 0
DWIDTH 19 0
BBX 17 18 1 0
BITMAP
03F800
0FFE00
1FFF80
3FFF00
7F0E00
7C0400
FC0000
F80000
F87F80
F87F80
F87F80
FC7F80
7C0F80
7E0F80
3FFF80
1FFF80
0FFE00
03F800
ENDCHAR
STARTCHAR H
ENCODING 72
SWIDTH 761 0
DWIDTH 19 0
BBX 15 18 2 0
BITMAP
F83E
F83E
F83E
F83E
F83E
F83E
F83E
FFFE
FFFE
FFFE
FFFE
F83E
F83E
F83E
F83E
F83E
F83E
F83E
ENDCHAR
STARTCHAR I
ENCODING 73
SWIDTH 327 0
DWIDTH 8 0
BBX 5 18 2 0
BITMAP
F8
F8
F8
F8
F8
F8
F8
F8
F8
F8
F8
F8
F8
F8
F8
F8
F8
F8
ENDCHAR
STARTCHAR J
ENCODING 74
SWIDTH 564 0
DWIDTH 14 0
BBX 13 18 0 0
BITMAP
00F8
00F8
00F8
00F8
00F8
00F8
00F8
00F8
00F8
00F8
00F8
00F8
20F8
31F8
7FF0
FFF0
7FE0
1F80
ENDCHAR
STARTCHAR K
ENCODING 75
SWIDTH 730 0
DWIDTH 18 0
BBX 17 18 1 0
BITMAP
F81F80
F83F00
F87E00
F8FC00
F9F800
FBF000
FBE000
FFC000
FFE000
FFE000
FFF000
FFF800
FDF800
F8FC00
F87E00
F87E00
F83F00
F81F80
ENDCHAR
STARTCHAR L
ENCODING 76
SWIDTH 616 0
DWIDTH 15 0
BBX 13 18 1 0
BITMAP
F800
F800
F800
F800
F800
F800
F800
F800
F800
F800
F800
F800
F800
F800
FFF8
FFF8
FFF8
FFF8
ENDCHAR
STARTCHAR M
ENCODING 77
SWIDTH 868 0
DWIDTH 22 0
BBX 18 18 2 0
BITMAP
F807C0
FC0FC0
FC0FC0
FE1FC0
FF3FC0
FF3FC0
FFFFC0
FFFFC0
FFFFC0
FBF7C0
F9E7C0
F9E7C0
F8C7C0
F8C7C0
F887C0
F807C0
F807C0
F807C0
ENDCHAR
STARTCHAR N
ENCODING 78
SWIDTH 785 0
DWIDTH 20 0
BBX 16 18 2 0
BITMAP
F81F
F81F
FC1F
FE1F
FE1F
FF1F
FF9F
FFDF
FFDF
FBFF
F9FF
F9FF
F8FF
F87F
F83F
F83F
F81F
F80F
ENDCHAR
STARTCHAR O
ENCODING 79
SWIDTH 831 0
DWIDTH 21 0
BBX 19 18 1 0
BITMAP
03F800
0FFE00
1FFF00
3FFF80
7E1FC0
7C07C0
FC07E0
F803E0
F803E0
F803E0
F803E0
FC07E0
7C07C0
7F0FC0
3FFF80
1FFF00
0FFE00
03F800
ENDCHAR
STARTCHAR P
ENCODING 80
SWIDTH 673 0
DWIDTH 17 0
BBX 14 18 2 0
BITMAP
FFC0
FFF0
FFF8
FFF8
F8FC
F87C
F87C
F87C
F8FC
FFF8
FFF8
FFF0
FFC0
F800
F800
F800
F800
F800
ENDCHAR
STARTCHAR Q
ENCODING 81
SWIDTH 831 0
DWIDTH 21 0
BBX 19 19 1 -1
BITMAP
03F800
0FFE00
1FFF00
3FFF80
7E1FC0
7C07C0
FC07E0
F803E0
F803E0
F813E0
F83BE0
FC7FE0
7C3FC0
7F1FC0
3FFFC0
1FFFC0
0FFFE0
03F8C0
000080
ENDCHAR
STARTCHAR R
ENCODING 82
SWIDTH 719 0
DWIDTH 18 0
BBX 16 18 2 0
BITMAP
FFE0
FFF8
FFFC
FFFC
F87E
F83E
F83E
F83E
F87E
FFFC
FFF8
FFF0
FFF0
F9F8
F8F8
F8FC
F87E
F83F
ENDCHAR
STARTCHAR S
ENCODING 83
SWIDTH 652 0
DWIDTH 16 0
BBX 15 18 0 0
BITMAP
07E0
1FFC
3FFE
7FFC
7C3C
7C08
7F00
7FE0
3FF8
1FFC
07FE
007E
203E
783E
FFFE
FFFC
3FF8
0FE0
ENDCHAR
STARTCHAR T
ENCODING 84
SWIDTH 660 0
DWIDTH 17 0
BBX 15 18 1 0
BITMAP
FFFE
FFFE
FFFE
FFFE
07C0
07C0
07C0
07C0
07C0
07C0
07C0
07C0
07C0
07C0
07C0
07C0
07C0
07C0
ENDCHAR
STARTCHAR U
ENCODING 85
SWIDTH 758 0
DWIDTH 19 0
BBX 17 18 1 0
BITMAP
F80F80
F80F80
F80F80
F80F80
F80F80
F80F80
F80F80
F80F80
F80F80
F80F80
F80F80
F80F80
FC1F80
7C1F00
7FFF00
3FFE00
1FFC00
07F000
ENDCHAR
STARTCHAR V
ENCODING 86
SWIDTH 760 0
DWIDTH 19 0
BBX 19 18 0 0
BITMAP
FC07E0
7C07C0
7C07C0
3E0F80
3E0F80
3F0F80
1F1F00
1F1F00
1F9F00
0FBE00
0FBE00
07FC00
07FC00
07FC00
03F800
03F800
01F000
01F000
ENDCHAR
STARTCHAR W
ENCODING 87
SWIDTH 1117 0
DWIDTH 28 0
BBX 28 18 0 0
BITMAP
FC0F03F0
7C1F83E0
7C1F83E0
3E1F87C0
3E3FC7C0
3E3FC7C0
3E3FC780
1F7FEF80
1F7FEF80
1F79EF00
0FF9FF00
0FF9FF00
0FF0FF00
07F0FE00
07F0FE00
07E07E00
03E07C00
03E07C00
ENDCHAR
STARTCHAR X
ENCODING 88
SWIDTH 732 0
DWIDTH 18 0
BBX 18 18 0 0
BITMAP
7C0FC0
3E1F80
3F1F00
1F3F00
1FBE00
0FFC00
07FC00
07F800
03F000
03F000
07F800
07FC00
0FFC00
1FBE00
1F3F00
3E1F00
7E0F80
FC0FC0
ENDCHAR
STARTCHAR Y
ENCODING 89
SWIDTH 723 0
DWIDTH 18 0
BBX 19 18 0 0
BITMAP
FC07E0
7E0FC0
3E0F80
3F1F80
1F1F00
0FBE00
0FBE00
07FC00
07FC00
03F800
01F000
01F000
01F000
01F000
01F000
01F000
01F000
01F000
ENDCHAR
STARTCHAR Z
ENCODING 90
SWIDTH 698 0
DWIDTH 17 0
BBX 15 18 1 0
BITMAP
FFFE
FFFE
FFFE
FFFE
00FE
01FC
01F8
03F0
07E0
0FE0
1FC0
3F80
3F00
7E00
FFFE
FFFE
FFFE
FFFE
ENDCHAR
STARTCHAR bracketleft
ENCODING 91
SWIDTH 457 0
DWIDTH 11 0
BBX 9 22 1 -4
BITMAP
FF80
FF80
FF80
FF80
F800
F800
F800
F800
F800
F800
F800
F800
F800
F800
F800
F800
F800
F800
FF80
FF80
FF80
FF80
ENDCHAR
STARTCHAR backslash
ENCODING 92
SWIDTH 535 0
DWIDTH 13 0
BBX 15 23 -1 -3
BITMAP
F000
7800
3800
3C00
1C00
1E00
0E00
0F00
0700
0780
0780
03C0
03C0
01E0
01E0
00F0
00F0
0078
0078
003C
003C
001E
001E
ENDCHAR
STARTCHAR bracketright
ENCODING 93
SWIDTH 457 0
DWIDTH 11 0
BBX 9 22 1 -4
BITMAP
FF80
FF80
FF80
FF80
0F80
0F80
0F80
0F80
0F80
0F80
0F80
0F80
0F80
0F80
0F80
0F80
0F80
0F80
FF80
FF80
FF80
FF80
ENDCHAR
STARTCHAR asciicircum
ENCODING 94
SWIDTH 500 0
DWIDTH 13 0
BBX 10 6 1 12
BITMAP
1E00
1F00
3F00
3F80
7BC0
F1C0
ENDCHAR
STARTCHAR underscore
ENCODING 95
SWIDTH 600 0
DWIDTH 15 0
BBX 15 3 0 -4
BITMAP
FFFE
FFFE
FFFE
ENDCHAR
STARTCHAR grave
ENCODING 96
SWIDTH 500 0
DWIDTH 13 0
BBX 7 4 2 15
BITMAP
18
FC
3C
1E
ENDCHAR
STARTCHAR a
ENCODING 97
SWIDTH 599 0
DWIDTH 15 0
BBX 13 14 1 0
BITMAP
3F80
7FE0
7FF0
7FF8
41F8
00F8
3FF8
7FF8
F8F8
F8F8
FFF8
FFF8
7FF8
3EF8
ENDCHAR
STARTCHAR b
ENCODING 98
SWIDTH 676 0
DWIDTH 17 0
BBX 15 18 1 0
BITMAP
F800
F800
F800
F800
F9E0
FFF8
FFFC
FFFC
FC7E
F83E
F83E
F83E
F83E
FC7E
FFFC
FFFC
FFF8
F9E0
ENDCHAR
STARTCHAR c
ENCODING 99
SWIDTH 569 0
DWIDTH 14 0
BBX 13 14 1 0
BITMAP
07C0
1FF0
3FF8
7FF8
FC60
F800
F800
F800
F800
FC70
7FF8
3FF8
1FF0
07C0
ENDCHAR
STARTCHAR d
ENCODING 100
SWIDTH 676 0
DWIDTH 17 0
BBX 15 18 1 0
BITMAP
003E
003E
003E
003E
0F3E
3FFE
7FFE
7FFE
FC7E
F83E
F83E
F83E
F83E
FC7E
7FFE
7FFE
3FFE
0F3E
ENDCHAR
STARTCHAR e
ENCODING 101
SWIDTH 605 0
DWIDTH 15 0
BBX 13 14 1 0
BITMAP
0F80
3FE0
7FF0
7FF8
F8F8
F078
FFF8
FFF8
F000
F860
7FF0
7FF8
3FE0
0FC0
ENDCHAR
STARTCHAR f
ENCODING 102
SWIDTH 404 0
DWIDTH 10 0
BBX 10 18 0 0
BITMAP
0FC0
1FC0
3FC0
3FC0
FFC0
FFC0
FFC0
FFC0
3E00
3E00
3E00
3E00
3E00
3E00
3E00
3E00
3E00
3E00
ENDCHAR
STARTCHAR g
ENCODING 103
SWIDTH 676 0
DWIDTH 17 0
BBX 15 18 1 -4
BITMAP
1F3E
3FBE
7FFE
7FFE
FC7E
F83E
F83E
F83E
FC7E
7FFE
7FFE
3FBE
1F3E
607E
7FFC
FFFC
7FF8
1FE0
ENDCHAR
STARTCHAR h
ENCODING 104
SWIDTH 634 0
DWIDTH 16 0
BBX 14 18 1 0
BITMAP
F800
F800
F800
F800
F9E0
FFF8
FFF8
FFFC
FCFC
F87C
F87C
F87C
F87C
F87C
F87C
F87C
F87C
F87C
ENDCHAR
STARTCHAR i
ENCODING 105
SWIDTH 300 0
DWIDTH 8 0
BBX 5 18 1 0
BITMAP
F8
F8
F8
F8
F8
F8
F8
F8
F8
F8
F8
F8
F8
F8
F8
F8
F8
F8
ENDCHAR
STARTCHAR j
ENCODING 106
SWIDTH 302 0
DWIDTH 8 0
BBX 7 22 -1 -4
BITMAP
3E
3E
3E
3E
3E
3E
3E
3E
3E
3E
3E
3E
3E
3E
3E
3E
3E
3E
7E
FE
FC
F8
ENDCHAR
STARTCHAR k
ENCODING 107
SWIDTH 603 0
DWIDTH 15 0
BBX 14 18 1 0
BITMAP
F800
F800
F800
F800
F8F8
F8FC
F9F0
FBF0
FFE0
FFC0
FFC0
FFC0
FFE0
FFE0
F9F0
F9F8
F8F8
F87C
ENDCHAR
STARTCHAR l
ENCODING 108
SWIDTH 300 0
DWIDTH 8 0
BBX 5 18 1 0
BITMAP
F8
F8
F8
F8
F8
F8
F8
F8
F8
F8
F8
F8
F8
F8
F8
F8
F8
F8
ENDCHAR
STARTCHAR m
ENCODING 109
SWIDTH 971 0
DWIDTH 24 0
BBX 22 14 1 0
BITMAP
F9F1F0
FBFBF8
FFFFFC
FFFFFC
FCFEFC
F87C7C
F87C7C
F87C7C
F87C7C
F87C7C
F87C7C
F87C7C
F87C7C
F87C7C
ENDCHAR
STARTCHAR n
ENCODING 110
SWIDTH 634 0
DWIDTH 16 0
BBX 14 14 1 0
BITMAP
F9E0
FBF8
FFF8
FFFC
FCFC
F87C
F87C
F87C
F87C
F87C
F87C
F87C
F87C
F87C
ENDCHAR
STARTCHAR o
ENCODING 111
SWIDTH 656 0
DWIDTH 16 0
BBX 14 14 1 0
BITMAP
0FC0
1FE0
3FF0
7FF8
FCFC
F87C
F87C
F87C
F87C
FCFC
7FF8
3FF0
1FE0
0FC0
ENDCHAR
STARTCHAR p
ENCODING 112
SWIDTH 676 0
DWIDTH 17 0
BBX 15 18 1 -4
BITMAP
F9E0
FBF8
FFFC
FFFC
FC7E
F83E
F83E
F83E
F83E
FC7E
FFFC
FFFC
FFF8
F9E0
F800
F800
F800
F800
ENDCHAR
STARTCHAR q
ENCODING 113
SWIDTH 676 0
DWIDTH 17 0
BBX 15 18 1 -4
BITMAP
0F3E
3FFE
7FFE
7FFE
FC7E
F83E
F83E
F83E
F83E
FC7E
7FFE
7FFE
3FBE
0F3E
003E
003E
003E
003E
ENDCHAR
STARTCHAR r
ENCODING 114
SWIDTH 428 0
DWIDTH 11 0
BBX 9 15 1 0
BITMAP
0080
FB80
FF80
FF80
FF80
FE00
FC00
F800
F800
F800
F800
F800
F800
F800
F800
ENDCHAR
STARTCHAR s
ENCODING 115
SWIDTH 514 0
DWIDTH 13 0
BBX 12 14 0 0
BITMAP
0F80
3FE0
7FF0
7FE0
7860
7C00
3FC0
1FE0
41F0
70F0
7FF0
FFF0
7FE0
0FC0
ENDCHAR
STARTCHAR t
ENCODING 116
SWIDTH 431 0
DWIDTH 11 0
BBX 10 17 0 0
BITMAP
3E00
3E00
3E00
FFC0
FFC0
FFC0
FFC0
3E00
3E00
3E00
3E00
3E00
3E00
3FC0
3FC0
1FC0
0F80
ENDCHAR
STARTCHAR u
ENCODING 117
SWIDTH 634 0
DWIDTH 16 0
BBX 14 14 1 0
BITMAP
F87C
F87C
F87C
F87C
F87C
F87C
F87C
F87C
F87C
FCFC
FFFC
7FFC
7FFC
1E7C
ENDCHAR
STARTCHAR v
ENCODING 118
SWIDTH 625 0
DWIDTH 16 0
BBX 15 14 0 0
BITMAP
F83E
7C3E
7C3C
3C7C
3E7C
3E78
1EF8
1FF0
0FF0
0FF0
0FE0
07E0
07E0
07C0
ENDCHAR
STARTCHAR w
ENCODING 119
SWIDTH 861 0
DWIDTH 22 0
BBX 21 14 0 0
BITMAP
F87878
78F8F8
7CF8F0
7CFCF0
3DFDF0
3DFDF0
3FFFE0
1FFFE0
1FDFE0
1FCFC0
1FCFC0
0F8FC0
0F8FC0
0F8780
ENDCHAR
STARTCHAR x
ENCODING 120
SWIDTH 589 0
DWIDTH 15 0
BBX 15 14 0 0
BITMAP
FC7C
7C78
3EF8
1FF0
1FF0
0FE0
0FC0
0FC0
0FE0
1FF0
3FF0
3EF8
7C7C
FC7E
ENDCHAR
STARTCHAR y
ENCODING 121
SWIDTH 626 0
DWIDTH 16 0
BBX 15 18 0 -4
BITMAP
F83E
7C3E
7C3C
3C7C
3E7C
3E78
1EF8
1FF8
0FF0
0FF0
0FF0
07E0
07E0
27C0
3FC0
7FC0
7F80
1F00
ENDCHAR
STARTCHAR z
ENCODING 122
SWIDTH 563 0
DWIDTH 14 0
BBX 12 14 1 0
BITMAP
FFF0
FFF0
FFF0
FFF0
03E0
07C0
0F80
1F00
3E00
7E00
FFF0
FFF0
FFF0
FFF0
ENDCHAR
STARTCHAR braceleft
ENCODING 123
SWIDTH 490 0
DWIDTH 12 0
BBX 11 22 1 -4
BITMAP
00E0
07E0
0FE0
1F80
1F00
1F00
1F00
1F00
3F00
FE00
FC00
FC00
FE00
3F00
1F00
1F00
1F00
1F00
1F80
0FE0
07E0
00E0
ENDCHAR
STARTCHAR bar
ENCODING 124
SWIDTH 355 0
DWIDTH 9 0
BBX 4 23 2 -3
BITMAP
F0
F0
F0
F0
F0
F0
F0
F0
F0
F0
F0
F0
F0
F0
F0
F0
F0
F0
F0
F0
F0
F0
F0
ENDCHAR
STARTCHAR braceright
ENCODING 125
SWIDTH 490 0
DWIDTH 12 0
BBX 11 22 1 -4
BITMAP
E000
FC00
FE00
3F00
1F00
1F00
1F00
1F00
1F80
0FE0
07E0
07E0
0FE0
1F80
1F00
1F00
1F00
1F00
3F00
FE00
FC00
E000
ENDCHAR
STARTCHAR asciitilde
ENCODING 126
SWIDTH 505 0
DWIDTH 13 0
BBX 11 4 1 6
BITMAP
3FC0
7FE0
FFC0
FF80
ENDCHAR
STARTCHAR nonbreakingspace
ENCODING 160
SWIDTH 277 0
DWIDTH 7 0
BBX 1 1 0 0
BITMAP
00
ENDCHAR
STARTCHAR exclamdown
ENCODING 161
SWIDTH 324 0
DWIDTH 8 0
BBX 6 18 1 0
BITMAP
7C
7C
7C
7C
00
00
30
30
78
78
78
78
78
78
7C
FC
FC
FC
ENDCHAR
STARTCHAR cent
ENCODING 162
SWIDTH 575 0
DWIDTH 14 0
BBX 14 18 0 0
BITMAP
00E0
00E0
07E0
1FF8
3FFC
7EF8
FDE0
F980
F980
F980
F980
7FB0
7FF8
3FFC
1FF0
07E0
0700
0700
ENDCHAR
STARTCHAR sterling
ENCODING 163
SWIDTH 639 0
DWIDTH 16 0
BBX 15 18 1 0
BITMAP
03F0
0FFC
1FFE
1FF8
3F10
3E00
3E00
3E00
FFF0
FFF0
FFF0
FFF0
3E00
3E00
3FFC
FFFC
FFFC
FFFC
ENDCHAR
STARTCHAR currency
ENCODING 164
SWIDTH 682 0
DWIDTH 17 0
BBX 16 18 1 0
BITMAP
01F0
07FC
0FFE
1FFF
1F1C
3E08
FFE0
FFE0
FFE0
3C00
FFE0
FFE0
FFE8
3E1C
1FFE
1FFF
0FFC
03F0
ENDCHAR
STARTCHAR yen
ENCODING 165
SWIDTH 708 0
DWIDTH 18 0
BBX 17 18 0 0
BITMAP
F80F80
7C1F00
7E1E00
3E3E00
1F7C00
0F7800
0FF800
7FFF00
7FFF00
7FFF00
7FFF00
03E000
7FFF00
7FFF00
7FFF00
7FFF00
03E000
03E000
ENDCHAR
STARTCHAR section
ENCODING 167
SWIDTH 626 0
DWIDTH 16 0
BBX 14 18 1 0
BITMAP
0FC0
3FF0
3FF8
7FF8
7C70
3E00
1FE0
7FF8
F0FC
F83C
7F78
1FF0
01F0
38F8
7FF8
7FF0
3FF0
0FC0
ENDCHAR
STARTCHAR dieresis
ENCODING 168
SWIDTH 500 0
DWIDTH 13 0
BBX 11 4 1 14
BITMAP
FBE0
FBE0
FBE0
FBE0
ENDCHAR
STARTCHAR copyright
ENCODING 169
SWIDTH 830 0
DWIDTH 21 0
BBX 18 18 1 0
BITMAP
03F000
0C0C00
100200
200100
41F080
43F880
871040
8E0040
8E0040
8E0040
8E0040
871040
47F880
41F080
200100
100200
0C0C00
03F000
ENDCHAR
STARTCHAR ordfeminine
ENCODING 170
SWIDTH 390 0
DWIDTH 10 0
BBX 8 11 1 7
BITMAP
7C
7E
07
07
7F
E7
FF
7F
00
7F
7F
ENDCHAR
STARTCHAR guillemotleft
ENCODING 171
SWIDTH 631 0
DWIDTH 16 0
BBX 14 12 1 1
BITMAP
1830
1E7C
3E78
7CF8
F9F0
F1E0
F3E0
F9F0
7CF8
3E78
1E3C
1830
ENDCHAR
STARTCHAR hyphen.dup1
ENCODING 173
SWIDTH 408 0
DWIDTH 10 0
BBX 8 4 1 6
BITMAP
FF
FF
FF
FF
ENDCHAR
STARTCHAR registered
ENCODING 174
SWIDTH 830 0
DWIDTH 21 0
BBX 18 18 1 0
BITMAP
03F000
0C0C00
100200
200100
47F080
47F880
871C40
871C40
87FC40
87F840
87F040
873840
473880
471C80
200100
100200
0C0C00
03F000
ENDCHAR
STARTCHAR macron
ENCODING 175
SWIDTH 500 0
DWIDTH 13 0
BBX 9 3 2 15
BITMAP
FF80
FF80
FF80
ENDCHAR
STARTCHAR degree
ENCODING 176
SWIDTH 472 0
DWIDTH 12 0
BBX 10 9 1 9
BITMAP
1E00
7F80
6180
C0C0
C0C0
C0C0
6180
7F80
1E00
ENDCHAR
STARTCHAR plusminus
ENCODING 177
SWIDTH 618 0
DWIDTH 15 0
BBX 15 18 0 0
BITMAP
0FC0
3FF0
7FF8
FFFC
38FC
107C
00FC
07F8
07F0
07F8
07FC
007E
103E
387E
7FFE
FFFC
3FF8
0FE0
ENDCHAR
STARTCHAR acute
ENCODING 180
SWIDTH 500 0
DWIDTH 13 0
BBX 7 4 3 15
BITMAP
18
3E
7C
F0
ENDCHAR
STARTCHAR mu
ENCODING 181
SWIDTH 831 0
DWIDTH 21 0
BBX 21 20 1 -2
BITMAP
03F800
0FFE00
1FFF00
3FFF80
7E1FC0
7C07C0
FC07E0
F803E0
F803E0
F803E0
F803E0
FC07E0
7C07C0
7F0FC0
3FFF80
1FFF80
0FFFC0
03FFE0
0007F0
0003F8
ENDCHAR
STARTCHAR paragraph
ENCODING 182
SWIDTH 596 0
DWIDTH 15 0
BBX 13 18 0 0
BITMAP
0FF8
3FF8
7FF8
7FF8
FFF8
FFF8
FFF8
FFF8
FFF8
7FF8
3FF8
1FF8
00F8
00F8
00F8
00F8
00F8
00F8
ENDCHAR
STARTCHAR periodcentered
ENCODING 183
SWIDTH 284 0
DWIDTH 7 0
BBX 5 4 1 6
BITMAP
F8
F8
F8
F8
ENDCHAR
STARTCHAR cedilla
ENCODING 184
SWIDTH 500 0
DWIDTH 13 0
BBX 5 4 3 -4
BITMAP
38
78
F0
30
ENDCHAR
STARTCHAR ordmasculine
ENCODING 186
SWIDTH 390 0
DWIDTH 10 0
BBX 8 11 1 7
BITMAP
3C
7E
E7
E7
E7
E7
7E
3C
00
FE
FE
ENDCHAR
STARTCHAR guillemotright
ENCODING 187
SWIDTH 631 0
DWIDTH 16 0
BBX 14 12 1 1
BITMAP
3040
F1E0
F9F0
7CF8
3E78
1E7C
1F7C
3E78
7CF8
F9F0
F1E0
3040
ENDCHAR
STARTCHAR questiondown
ENCODING 191
SWIDTH 540 0
DWIDTH 14 0
BBX 13 18 0 0
BITMAP
07C0
07C0
07C0
07C0
0000
0000
0780
0780
1F80
7F80
7F80
FC00
F820
F860
FFF0
7FF8
3FF0
0FC0
ENDCHAR
STARTCHAR Agrave
ENCODING 192
SWIDTH 795 0
DWIDTH 20 0
BBX 20 23 0 0
BITMAP
00C000
07C000
01E000
00F000
000000
01F000
01F800
01F800
03FC00
03FC00
07FE00
07FE00
0FBE00
0F9F00
0F9F00
1F0F80
1FFF80
3FFF80
3FFFC0
3FFFC0
7C03E0
7C03E0
F803F0
ENDCHAR
STARTCHAR Aacute
ENCODING 193
SWIDTH 795 0
DWIDTH 20 0
BBX 20 23 0 0
BITMAP
003000
003E00
007800
00F000
000000
01F000
01F800
01F800
03FC00
03FC00
07FE00
07FE00
0FBE00
0F9F00
0F9F00
1F0F80
1FFF80
3FFF80
3FFFC0
3FFFC0
7C03E0
7C03E0
F803F0
ENDCHAR
STARTCHAR Acircumflex
ENCODING 194
SWIDTH 795 0
DWIDTH 20 0
BBX 20 23 0 0
BITMAP
00F000
01F800
03FC00
079E00
000000
01F000
01F800
01F800
03FC00
03FC00
07FE00
07FE00
0FBE00
0F9F00
0F9F00
1F0F80
1FFF80
3FFF80
3FFFC0
3FFFC0
7C07E0
7C03E0
F803F0
ENDCHAR
STARTCHAR Atilde
ENCODING 195
SWIDTH 795 0
DWIDTH 20 0
BBX 20 23 0 0
BITMAP
038400
03EE00
07FE00
07FE00
067C00
01F800
01F800
01F800
03FC00
03FC00
07FE00
07FE00
0FBE00
0F9F00
0F9F00
1F0F80
1FFF80
3FFF80
3FFFC0
3FFFC0
7C07E0
7C03E0
F803F0
ENDCHAR
STARTCHAR Adieresis
ENCODING 196
SWIDTH 795 0
DWIDTH 20 0
BBX 19 22 0 0
BITMAP
07FE00
07FE00
07FE00
07FE00
01F000
01F800
03F800
03F800
07FC00
07FC00
07FE00
0FBE00
0F9F00
1F9F00
1F9F00
1FFF80
3FFF80
3FFFC0
7FFFC0
7C07C0
7C03E0
F803E0
ENDCHAR
STARTCHAR Aring
ENCODING 197
SWIDTH 795 0
DWIDTH 20 0
BBX 18 23 1 0
BITMAP
01E000
03E000
033000
033000
033000
01E000
03F000
03F000
07F800
07F800
07F800
0FFC00
0FFC00
1F3E00
1F3E00
1F3E00
3FFF00
3FFF00
7FFF80
7FFF80
7C0F80
F807C0
F807C0
ENDCHAR
STARTCHAR AE
ENCODING 198
SWIDTH 1063 0
DWIDTH 27 0
BBX 26 18 0 0
BITMAP
007FFFC0
00FFFFC0
00FFFFC0
01FFFFC0
01EF8000
03EF8000
03CF8000
07CFFF80
07CFFF80
0F8FFF80
0F8FFF80
1FFF8000
1FFF8000
3FFF8000
3FFFFFC0
7C0FFFC0
7C0FFFC0
F80FFFC0
ENDCHAR
STARTCHAR Ccedilla
ENCODING 199
SWIDTH 730 0
DWIDTH 18 0
BBX 17 22 1 -4
BITMAP
03F800
0FFE00
1FFF00
3FFF80
7E1E00
7C0C00
F80000
F80000
F80000
F80000
F80000
FC0800
7E0E00
7FFF00
3FFF80
1FFE00
0FFC00
03F000
03C000
078000
078000
018000
ENDCHAR
STARTCHAR Egrave
ENCODING 200
SWIDTH 667 0
DWIDTH 17 0
BBX 14 23 1 0
BITMAP
0600
1F00
0F80
0380
0040
FFFC
FFFC
FFFC
FFFC
F800
F800
F800
FFF8
FFF8
FFF8
FFF8
F800
F800
F800
FFFC
FFFC
FFFC
FFFC
ENDCHAR
STARTCHAR Eacute
ENCODING 201
SWIDTH 667 0
DWIDTH 17 0
BBX 14 23 1 0
BITMAP
0180
01F0
03C0
0780
0000
FFFC
FFFC
FFFC
FFFC
F800
F800
F800
FFF8
FFF8
FFF8
FFF8
F800
F800
F800
FFFC
FFFC
FFFC
FFFC
ENDCHAR
STARTCHAR Ecircumflex
ENCODING 202
SWIDTH 667 0
DWIDTH 17 0
BBX 14 23 1 0
BITMAP
0780
0FC0
1FE0
1CF0
2000
FFFC
FFFC
FFFC
FFFC
F800
F800
F800
FFF8
FFF8
FFF8
FFF8
F800
F800
F800
FFFC
FFFC
FFFC
FFFC
ENDCHAR
STARTCHAR Edieresis
ENCODING 203
SWIDTH 667 0
DWIDTH 17 0
BBX 14 22 1 0
BITMAP
3EF8
3EF8
3EF8
3EF8
FFFC
FFFC
FFFC
FFFC
F800
F800
F800
FFF8
FFF8
FFF8
FFF8
F800
F800
F800
FFFC
FFFC
FFFC
FFFC
ENDCHAR
STARTCHAR Igrave
ENCODING 204
SWIDTH 327 0
DWIDTH 8 0
BBX 8 23 -1 0
BITMAP
18
FC
3E
1E
00
1F
1F
1F
1F
1F
1F
1F
1F
1F
1F
1F
1F
1F
1F
1F
1F
1F
1F
ENDCHAR
STARTCHAR Iacute
ENCODING 205
SWIDTH 327 0
DWIDTH 8 0
BBX 8 23 2 0
BITMAP
18
3F
7C
78
00
F8
F8
F8
F8
F8
F8
F8
F8
F8
F8
F8
F8
F8
F8
F8
F8
F8
F8
ENDCHAR
STARTCHAR Icircumflex
ENCODING 206
SWIDTH 327 0
DWIDTH 8 0
BBX 10 23 -1 0
BITMAP
1E00
3F00
7F80
F3C0
0000
1F00
1F00
1F00
1F00
1F00
1F00
1F00
1F00
1F00
1F00
1F00
1F00
1F00
1F00
1F00
1F00
1F00
1F00
ENDCHAR
STARTCHAR Idieresis
ENCODING 207
SWIDTH 327 0
DWIDTH 8 0
BBX 10 22 -1 0
BITMAP
FFC0
FFC0
FFC0
FFC0
1F00
1F00
1F00
1F00
1F00
1F00
1F00
1F00
1F00
1F00
1F00
1F00
1F00
1F00
1F00
1F00
1F00
1F00
ENDCHAR
STARTCHAR Eth
ENCODING 208
SWIDTH 815 0
DWIDTH 20 0
BBX 18 18 1 0
BITMAP
3FF000
3FFC00
3FFF00
3FFF00
3E1F80
3E0F80
3E07C0
FFC7C0
FFC7C0
FFC7C0
FFC7C0
3E07C0
3E0F80
3E1F80
3FFF00
3FFE00
3FFC00
3FF000
ENDCHAR
STARTCHAR Ntilde
ENCODING 209
SWIDTH 785 0
DWIDTH 20 0
BBX 16 23 2 0
BITMAP
0E10
1FB8
1FF8
1FF0
19F0
F87F
F81F
FC1F
FE1F
FE1F
FF1F
FF9F
FF9F
FFDF
FBFF
F9FF
F9FF
F8FF
F87F
F87F
F83F
F81F
F80F
ENDCHAR
STARTCHAR Ograve
ENCODING 210
SWIDTH 831 0
DWIDTH 21 0
BBX 19 23 1 0
BITMAP
018000
0FC000
03C000
01E000
000000
03F800
0FFE00
1FFF00
3FFF80
7E1FC0
7C07C0
FC07E0
F803E0
F803E0
F803E0
F803E0
FC07E0
7C07C0
7F0FC0
3FFF80
1FFF00
0FFE00
03F800
ENDCHAR
STARTCHAR Oacute
ENCODING 211
SWIDTH 831 0
DWIDTH 21 0
BBX 19 23 1 0
BITMAP
003000
007E00
007800
00F000
000000
03F800
0FFE00
1FFF00
3FFF80
7E1FC0
7C07C0
FC07E0
F803E0
F803E0
F803E0
F803E0
FC07E0
7C07C0
7F0FC0
3FFF80
1FFF00
0FFE00
03F800
ENDCHAR
STARTCHAR Ocircumflex
ENCODING 212
SWIDTH 831 0
DWIDTH 21 0
BBX 19 23 1 0
BITMAP
01F000
03F800
03F800
071C00
080200
03F800
0FFE00
1FFF00
3FFF80
7E1FC0
7C07C0
FC07E0
F803E0
F803E0
F803E0
F803E0
FC07E0
7C07C0
7F0FC0
3FFF80
1FFF00
0FFE00
03F800
ENDCHAR
STARTCHAR Otilde
ENCODING 213
SWIDTH 831 0
DWIDTH 21 0
BBX 19 23 1 0
BITMAP
038C00
07CE00
07FC00
0FFC00
0E7C00
03F800
0FFE00
1FFF00
3FFF80
7E1FC0
7C07C0
FC07E0
F803E0
F803E0
F803E0
F803E0
FC07E0
7C07C0
7F0FC0
3FFF80
1FFF00
0FFE00
03F800
ENDCHAR
STARTCHAR Odieresis
ENCODING 214
SWIDTH 831 0
DWIDTH 21 0
BBX 19 22 1 0
BITMAP
0FBE00
0FBE00
0FBE00
0FBE00
03F800
0FFE00
1FFF00
3FFF80
7E1FC0
7C07C0
FC07E0
F803E0
F803E0
F803E0
F803E0
FC07E0
7C07C0
7F0FC0
3FFF80
1FFF00
0FFE00
03F800
ENDCHAR
STARTCHAR Oslash
ENCODING 216
SWIDTH 831 0
DWIDTH 21 0
BBX 19 18 1 0
BITMAP
03F9E0
0FFFC0
1FFF80
3FFF80
7E1FC0
7C1FC0
FC3FE0
F87BE0
F8F3E0
F9E3E0
FBC3E0
FF87E0
7F07C0
7F0FC0
3FFF80
3FFF00
7FFE00
F3F800
ENDCHAR
STARTCHAR Ugrave
ENCODING 217
SWIDTH 758 0
DWIDTH 19 0
BBX 17 23 1 0
BITMAP
030000
1F8000
078000
03C000
01E000
F80F80
F80F80
F80F80
F80F80
F80F80
F80F80
F80F80
F80F80
F80F80
F80F80
F80F80
F80F80
FC1F80
7C1F00
7FFF00
3FFE00
1FFC00
07F000
ENDCHAR
STARTCHAR Uacute
ENCODING 218
SWIDTH 758 0
DWIDTH 19 0
BBX 17 23 1 0
BITMAP
006000
00FC00
00F800
01E000
03C000
F80F80
F80F80
F80F80
F80F80
F80F80
F80F80
F80F80
F80F80
F80F80
F80F80
F80F80
F80F80
FC1F80
7C1F00
7FFF00
3FFE00
1FFC00
07F000
ENDCHAR
STARTCHAR Ucircumflex
ENCODING 219
SWIDTH 758 0
DWIDTH 19 0
BBX 17 23 1 0
BITMAP
03E000
07F000
0FF800
0E3800
100400
F80F80
F80F80
F80F80
F80F80
F80F80
F80F80
F80F80
F80F80
F80F80
F80F80
F80F80
F80F80
FC1F80
7C1F00
7FFF00
3FFE00
1FFC00
07F000
ENDCHAR
STARTCHAR Udieresis
ENCODING 220
SWIDTH 758 0
DWIDTH 19 0
BBX 17 22 1 0
BITMAP
1F7C00
1F7C00
1F7C00
1F7C00
F80F80
F80F80
F80F80
F80F80
F80F80
F80F80
F80F80
F80F80
F80F80
F80F80
F80F80
F80F80
FC1F80
7C1F00
7FFF00
3FFE00
1FFC00
07F000
ENDCHAR
STARTCHAR Yacute
ENCODING 221
SWIDTH 723 0
DWIDTH 18 0
BBX 19 23 0 0
BITMAP
003000
007C00
007800
00F000
01E000
FC0780
7E0FE0
3E0FC0
3F1F80
1F1F00
0FBF00
0FBE00
07FC00
07FC00
03F800
01F800
01F000
01F000
01F000
01F000
01F000
01F000
01F000
ENDCHAR
STARTCHAR Thorn
ENCODING 222
SWIDTH 682 0
DWIDTH 17 0
BBX 14 18 2 0
BITMAP
F800
F800
F800
FFC0
FFF0
FFF8
FFFC
F8FC
F87C
F87C
F8FC
FFFC
FFF8
FFF0
FFC0
F800
F800
F800
ENDCHAR
STARTCHAR germandbls
ENCODING 223
SWIDTH 635 0
DWIDTH 16 0
BBX 14 18 1 0
BITMAP
0FC0
3FF0
7FF8
7FFC
FC7C
F87C
F87C
F8F8
F9F0
F9F0
F8F8
F87C
F87C
F8FC
FBFC
FBF8
FBF0
FBC0
ENDCHAR
STARTCHAR agrave
ENCODING 224
SWIDTH 599 0
DWIDTH 15 0
BBX 13 19 1 0
BITMAP
0400
3E00
0F00
0700
0080
3F80
7FE0
7FF0
7FF8
5FF8
7FF8
FCF8
F8F8
F8F8
F9F8
FFF8
7FF8
7FF8
1EF8
ENDCHAR
STARTCHAR aacute
ENCODING 225
SWIDTH 599 0
DWIDTH 15 0
BBX 13 19 1 0
BITMAP
0180
03F0
03C0
0780
0000
3F80
7FE0
7FF0
7FF8
5FF8
7FF8
FCF8
F8F8
F8F8
F9F8
FFF8
7FF8
7FF8
1EF8
ENDCHAR
STARTCHAR acircumflex
ENCODING 226
SWIDTH 599 0
DWIDTH 15 0
BBX 13 19 1 0
BITMAP
0780
0FC0
1FC0
3CE0
0010
3F80
7FE0
7FF0
7FF8
41F8
00F8
3FF8
7FF8
F8F8
F8F8
FFF8
FFF8
7FF8
3EF8
ENDCHAR
STARTCHAR atilde
ENCODING 227
SWIDTH 599 0
DWIDTH 15 0
BBX 13 19 1 0
BITMAP
1E60
1FF0
3FE0
3BE0
01C0
3F80
7FE0
7FF0
7FF8
41F8
00F8
3FF8
7FF8
F8F8
F8F8
FFF8
FFF8
7FF8
3EF8
ENDCHAR
STARTCHAR adieresis
ENCODING 228
SWIDTH 599 0
DWIDTH 15 0
BBX 14 18 0 0
BITMAP
3EF8
3EF8
3EF8
3EF8
1FC0
3FF0
3FF8
3FFC
20FC
007C
1FFC
7FFC
F87C
F8FC
FFFC
FFFC
7FFC
3E7C
ENDCHAR
STARTCHAR aring
ENCODING 229
SWIDTH 599 0
DWIDTH 15 0
BBX 14 21 0 0
BITMAP
0380
0FC0
0C60
0C60
0FE0
0380
0000
1FC0
3FF0
3FF8
3FFC
20FC
007C
1FFC
7FFC
F87C
F8FC
FFFC
FFFC
7F7C
3E7C
ENDCHAR
STARTCHAR ae
ENCODING 230
SWIDTH 940 0
DWIDTH 24 0
BBX 22 14 0 0
BITMAP
1FC7C0
7FFFF0
3FFFF8
3FFFF8
20FC3C
007C3C
3FFFFC
7FFFFC
F87800
F87C30
FFFFF8
FFFFFC
7FDFF0
3F07C0
ENDCHAR
STARTCHAR ccedilla
ENCODING 231
SWIDTH 569 0
DWIDTH 14 0
BBX 13 18 1 -4
BITMAP
07C0
1FF0
3FF8
7FF8
FC60
F800
F800
F800
F800
FC70
7FF8
3FF8
1FF0
07C0
0700
0F00
1F00
0200
ENDCHAR
STARTCHAR egrave
ENCODING 232
SWIDTH 605 0
DWIDTH 15 0
BBX 13 19 1 0
BITMAP
0C00
7E00
1E00
0F00
0000
0F80
3FE0
7FF0
7FF8
F8F8
F078
FFF8
FFF8
F000
F860
7FF0
7FF8
3FE0
0FC0
ENDCHAR
STARTCHAR eacute
ENCODING 233
SWIDTH 605 0
DWIDTH 15 0
BBX 13 19 1 0
BITMAP
0180
03F0
03C0
0780
0000
0F80
3FE0
7FF0
7FF8
F8F8
F078
FFF8
FFF8
F000
F860
7FF0
7FF8
3FE0
0FC0
ENDCHAR
STARTCHAR ecircumflex
ENCODING 234
SWIDTH 605 0
DWIDTH 15 0
BBX 13 19 1 0
BITMAP
0F80
1FC0
1FC0
38E0
4010
0F80
3FE0
7FF0
7FF8
F8F8
F078
FFF8
FFF8
F000
F860
7FF0
7FF8
3FE0
0FC0
ENDCHAR
STARTCHAR edieresis
ENCODING 235
SWIDTH 605 0
DWIDTH 15 0
BBX 14 18 1 0
BITMAP
7DF0
7DF0
7DF0
7DF0
0FC0
1FE0
3FF0
7FF8
F8F8
F07C
FFFC
FFFC
F800
FC70
7FF8
7FF8
3FF0
0FC0
ENDCHAR
STARTCHAR igrave
ENCODING 236
SWIDTH 300 0
DWIDTH 8 0
BBX 7 19 -1 0
BITMAP
30
F8
7C
1C
02
3E
3E
3E
3E
3E
3E
3E
3E
3E
3E
3E
3E
3E
3E
ENDCHAR
STARTCHAR iacute
ENCODING 237
SWIDTH 300 0
DWIDTH 8 0
BBX 7 19 1 0
BITMAP
18
3E
7C
78
80
F8
F8
F8
F8
F8
F8
F8
F8
F8
F8
F8
F8
F8
F8
ENDCHAR
STARTCHAR icircumflex
ENCODING 238
SWIDTH 300 0
DWIDTH 8 0
BBX 10 19 -1 0
BITMAP
3E00
3F00
7F80
F380
0040
3E00
3E00
3E00
3E00
3E00
3E00
3E00
3E00
3E00
3E00
3E00
3E00
3E00
3E00
ENDCHAR
STARTCHAR idieresis
ENCODING 239
SWIDTH 300 0
DWIDTH 8 0
BBX 10 18 -1 0
BITMAP
FFC0
FFC0
FFC0
FFC0
3E00
3E00
3E00
3E00
3E00
3E00
3E00
3E00
3E00
3E00
3E00
3E00
3E00
3E00
ENDCHAR
STARTCHAR eth
ENCODING 240
SWIDTH 656 0
DWIDTH 16 0
BBX 14 18 1 0
BITMAP
0FA0
0FF0
0FE0
3FC0
1DE0
01F0
1FF0
3FF8
7FF8
FFFC
FCFC
F87C
F87C
FCFC
7FF8
7FF8
3FF0
0FC0
ENDCHAR
STARTCHAR ntilde
ENCODING 241
SWIDTH 634 0
DWIDTH 16 0
BBX 14 19 1 0
BITMAP
1E30
1FF8
3FF0
3BF0
00E0
F9E0
FBF8
FFF8
FFFC
FCFC
F87C
F87C
F87C
F87C
F87C
F87C
F87C
F87C
F87C
ENDCHAR
STARTCHAR ograve
ENCODING 242
SWIDTH 656 0
DWIDTH 16 0
BBX 14 19 1 0
BITMAP
0600
3E00
0F00
0700
0080
0FC0
1FE0
3FF0
7FF8
FCFC
F87C
F87C
F87C
F87C
FCFC
7FF8
3FF0
1FE0
0FC0
ENDCHAR
STARTCHAR oacute
ENCODING 243
SWIDTH 656 0
DWIDTH 16 0
BBX 14 19 1 0
BITMAP
0180
01F0
03C0
0380
0400
0FC0
1FE0
3FF0
7FF8
FCFC
F87C
F87C
F87C
F87C
FCFC
7FF8
3FF0
1FE0
0FC0
ENDCHAR
STARTCHAR ocircumflex
ENCODING 244
SWIDTH 656 0
DWIDTH 16 0
BBX 14 19 1 0
BITMAP
0780
0FC0
0FC0
1CE0
0000
0FC0
1FE0
3FF0
7FF8
FCFC
F87C
F87C
F87C
F87C
FCFC
7FF8
3FF0
1FE0
0FC0
ENDCHAR
STARTCHAR otilde
ENCODING 245
SWIDTH 656 0
DWIDTH 16 0
BBX 14 19 1 0
BITMAP
0E60
1FE0
1FE0
19C0
01C0
0FC0
1FE0
3FF0
7FF8
FCFC
F87C
F87C
F87C
F87C
FCFC
7FF8
3FF0
1FE0
0FC0
ENDCHAR
STARTCHAR odieresis
ENCODING 246
SWIDTH 656 0
DWIDTH 16 0
BBX 15 18 1 0
BITMAP
3FF0
3FF0
3FF0
3FF0
07C0
1FF0
3FF8
7FFC
FC7E
F83E
F83E
F83E
F83E
FC7E
7FFC
3FF8
1FF0
07C0
ENDCHAR
STARTCHAR oslash
ENCODING 248
SWIDTH 656 0
DWIDTH 16 0
BBX 14 14 1 0
BITMAP
0FDC
1FF8
3FF0
7FF8
FCFC
F9FC
FBFC
FF7C
FE7C
FCFC
7FF8
3FF0
7FE0
EFC0
ENDCHAR
STARTCHAR ugrave
ENCODING 249
SWIDTH 634 0
DWIDTH 16 0
BBX 14 19 1 0
BITMAP
0600
3F00
0F00
0780
0000
F87C
F87C
F87C
F87C
F87C
F87C
F87C
F87C
F87C
FCFC
FFFC
7FFC
7FFC
1E7C
ENDCHAR
STARTCHAR uacute
ENCODING 250
SWIDTH 634 0
DWIDTH 16 0
BBX 14 19 1 0
BITMAP
0180
03F0
03C0
0780
0000
F87C
F87C
F87C
F87C
F87C
F87C
F87C
F87C
F87C
FCFC
FFFC
7FFC
7FFC
1E7C
ENDCHAR
STARTCHAR ucircumflex
ENCODING 251
SWIDTH 634 0
DWIDTH 16 0
BBX 14 19 1 0
BITMAP
0780
0FC0
1FE0
3CF0
0000
F87C
F87C
F87C
F87C
F87C
F87C
F87C
F87C
F87C
FCFC
FFFC
7FFC
7FFC
1E7C
ENDCHAR
STARTCHAR udieresis
ENCODING 252
SWIDTH 634 0
DWIDTH 16 0
BBX 14 18 1 0
BITMAP
3FF0
3FF0
3FF0
3FF0
F87C
F87C
F87C
F87C
F87C
F87C
F87C
F87C
F87C
FCFC
FFFC
FFFC
7F7C
3E7C
ENDCHAR
STARTCHAR yacute
ENCODING 253
SWIDTH 626 0
DWIDTH 16 0
BBX 15 23 0 -4
BITMAP
00C0
01F8
01E0
03C0
0000
F83E
7C3E
7C3C
3C7C
3E7C
3E78
1EF8
1FF8
0FF0
0FF0
0FF0
07E0
07E0
27C0
3FC0
7FC0
7F80
1F00
ENDCHAR
STARTCHAR thorn
ENCODING 254
SWIDTH 676 0
DWIDTH 17 0
BBX 15 22 1 -4
BITMAP
F800
F800
F800
F800
F9E0
FBF8
FFFC
FFFC
FC7E
F83E
F83E
F83E
F83E
FC7E
FFFC
FFFC
FFF8
F9E0
F800
F800
F800
F800
ENDCHAR
STARTCHAR ydieresis
ENCODING 255
SWIDTH 626 0
DWIDTH 16 0
BBX 16 22 0 -4
BITMAP
1FF8
1FF8
1FF8
1FF8
FC1F
7C3E
7C3E
3E3C
3E7C
1E7C
1F78
1FF8
0FF0
0FF0
07F0
07E0
07E0
23E0
3FC0
3FC0
7F80
1F00
ENDCHAR
STARTCHAR dotlessi
ENCODING 305
SWIDTH 300 0
DWIDTH 8 0
BBX 5 14 1 0
BITMAP
F8
F8
F8
F8
F8
F8
F8
F8
F8
F8
F8
F8
F8
F8
ENDCHAR
STARTCHAR Lslash
ENCODING 321
SWIDTH 659 0
DWIDTH 16 0
BBX 15 18 1 0
BITMAP
3E00
3E00
3E00
3E00
3E20
3EE0
3FE0
7FE0
FFE0
FFC0
FE00
FE00
3E00
3E00
3FFE
3FFE
3FFE
3FFE
ENDCHAR
STARTCHAR lslash
ENCODING 322
SWIDTH 401 0
DWIDTH 10 0
BBX 9 18 1 0
BITMAP
3E00
3E00
3E00
3E00
3E00
3E80
3F80
7F80
FF80
FF80
FE00
FE00
3E00
3E00
3E00
3E00
3E00
3E00
ENDCHAR
STARTCHAR OE
ENCODING 338
SWIDTH 1078 0
DWIDTH 27 0
BBX 25 18 1 0
BITMAP
03FFFF80
0FFFFF80
1FFFFF80
3FFFFF80
7E1F0000
7C1F0000
FC1F0000
F81FFF00
F81FFF00
F81FFF00
F81FFF00
F81F0000
7C1F0000
7E1F0000
3FFFFF80
1FFFFF80
0FFFFF80
03FFFF80
ENDCHAR
STARTCHAR oe
ENCODING 339
SWIDTH 1013 0
DWIDTH 25 0
BBX 24 14 1 0
BITMAP
07C1F0
1FF7FC
3FFFFC
7FFFFE
FC7E3E
F83E1F
F81FFF
F81FFF
F83E00
FC7F0C
7FFFFE
3FFFFE
1FF7FC
07C1F0
ENDCHAR
STARTCHAR Scaron
ENCODING 352
SWIDTH 652 0
DWIDTH 16 0
BBX 15 23 0 0
BITMAP
1E78
0FF0
07E0
03C0
0000
07E0
1FFC
3FFE
7FFC
7C3C
7C08
7F00
7FE0
3FF8
1FFC
07FE
007E
203E
783E
FFFE
FFFC
3FF8
0FE0
ENDCHAR
STARTCHAR scaron
ENCODING 353
SWIDTH 514 0
DWIDTH 13 0
BBX 12 19 0 0
BITMAP
78F0
1DC0
1FC0
0F80
0000
0F80
3FE0
7FF0
7FE0
7860
7C00
3FC0
1FE0
41F0
70F0
7FF0
FFF0
7FE0
0FC0
ENDCHAR
STARTCHAR Ydieresis
ENCODING 376
SWIDTH 723 0
DWIDTH 18 0
BBX 19 22 0 0
BITMAP
0FFC00
0FFC00
0FFC00
0FFC00
FC07E0
7E0FC0
3E0F80
3F1F80
1F1F00
0FBE00
0FBE00
07FC00
07FC00
03F800
01F000
01F000
01F000
01F000
01F000
01F000
01F000
01F000
ENDCHAR
STARTCHAR Zcaron
ENCODING 381
SWIDTH 698 0
DWIDTH 17 0
BBX 15 23 1 0
BITMAP
1C78
0FF0
07E0
07C0
0000
FFFE
FFFE
FFFE
FFFE
00FE
01FC
01F8
03F0
07E0
0FE0
1FC0
3F80
3F00
7E00
FFFE
FFFE
FFFE
FFFE
ENDCHAR
STARTCHAR zcaron
ENCODING 382
SWIDTH 563 0
DWIDTH 14 0
BBX 12 19 1 0
BITMAP
78E0
3FC0
1F80
0F80
0000
FFF0
FFF0
FFF0
FFF0
03E0
07C0
0F80
1F00
3E00
7E00
FFF0
FFF0
FFF0
FFF0
ENDCHAR
STARTCHAR florin
ENCODING 402
SWIDTH 553 0
DWIDTH 14 0
BBX 12 18 1 0
BITMAP
01F0
07F0
07F0
0FF0
0F80
0F80
3FE0
3FE0
3FE0
3FE0
1F00
1F00
1E00
3E00
FE00
FE00
FC00
F800
ENDCHAR
STARTCHAR circumflex
ENCODING 710
SWIDTH 500 0
DWIDTH 13 0
BBX 10 4 1 15
BITMAP
1F00
3F00
7F80
F1C0
ENDCHAR
STARTCHAR caron
ENCODING 711
SWIDTH 500 0
DWIDTH 13 0
BBX 10 4 1 15
BITMAP
F1C0
7F80
3F00
1F00
ENDCHAR
STARTCHAR macron.dup2
ENCODING 713
SWIDTH 500 0
DWIDTH 13 0
BBX 9 3 2 15
BITMAP
FF80
FF80
FF80
ENDCHAR
STARTCHAR breve
ENCODING 728
SWIDTH 500 0
DWIDTH 13 0
BBX 10 4 1 15
BITMAP
E1C0
7FC0
7F80
1F00
ENDCHAR
STARTCHAR dotaccent
ENCODING 729
SWIDTH 500 0
DWIDTH 13 0
BBX 5 4 4 14
BITMAP
F8
F8
F8
F8
ENDCHAR
STARTCHAR ring
ENCODING 730
SWIDTH 500 0
DWIDTH 13 0
BBX 7 6 3 15
BITMAP
38
FC
C6
C6
FE
38
ENDCHAR
STARTCHAR ogonek
ENCODING 731
SWIDTH 500 0
DWIDTH 13 0
BBX 5 4 4 -4
BITMAP
E0
E0
F8
78
ENDCHAR
STARTCHAR tilde
ENCODING 732
SWIDTH 500 0
DWIDTH 13 0
BBX 11 4 1 15
BITMAP
78C0
7FE0
FFC0
E780
ENDCHAR
STARTCHAR hungarumlaut
ENCODING 733
SWIDTH 500 0
DWIDTH 13 0
BBX 11 4 1 15
BITMAP
3180
7FE0
7F80
FF00
ENDCHAR
STARTCHAR semicolon.dup3
ENCODING 894
SWIDTH 294 0
DWIDTH 7 0
BBX 6 18 0 -4
BITMAP
7C
7C
7C
7C
00
00
00
00
00
00
7C
7C
7C
7C
1C
3C
F8
70
ENDCHAR
STARTCHAR Omega
ENCODING 937
SWIDTH 808 0
DWIDTH 20 0
BBX 20 18 0 0
BITMAP
0FC3F0
1FC7F0
3FCFF0
3FCFF0
FFFFF0
FFFFF0
FFFFF0
FFFFF0
3E0F80
3E0F80
3E0F80
3E0F80
3E0F80
3E0F80
3E0F80
3E0F80
3E0F80
3E0F80
ENDCHAR
STARTCHAR mu.dup4
ENCODING 956
SWIDTH 831 0
DWIDTH 21 0
BBX 21 20 1 -2
BITMAP
03F800
0FFE00
1FFF00
3FFF80
7E1FC0
7C07C0
FC07E0
F803E0
F803E0
F803E0
F803E0
FC07E0
7C07C0
7F0FC0
3FFF80
1FFF80
0FFFC0
03FFE0
0007F0
0003F8
ENDCHAR
STARTCHAR pi
ENCODING 960
SWIDTH 830 0
DWIDTH 21 0
BBX 18 18 1 0
BITMAP
03F000
0C0C00
100200
200100
43F080
43F880
839C40
839C40
839C40
83F840
83F040
838040
438080
438080
200100
100200
0C0C00
03F000
ENDCHAR
STARTCHAR endash
ENCODING 8211
SWIDTH 528 0
DWIDTH 13 0
BBX 11 4 1 6
BITMAP
FFE0
FFE0
FFE0
FFE0
ENDCHAR
STARTCHAR emdash
ENCODING 8212
SWIDTH 898 0
DWIDTH 22 0
BBX 20 4 1 6
BITMAP
FFFFF0
FFFFF0
FFFFF0
FFFFF0
ENDCHAR
STARTCHAR quoteleft
ENCODING 8216
SWIDTH 284 0
DWIDTH 7 0
BBX 6 9 1 9
BITMAP
18
78
F4
E0
E0
F8
F8
F8
F8
ENDCHAR
STARTCHAR quoteright
ENCODING 8217
SWIDTH 284 0
DWIDTH 7 0
BBX 6 10 0 8
BITMAP
7C
7C
7C
7C
1C
1C
3C
F8
78
60
ENDCHAR
STARTCHAR quotesinglbase
ENCODING 8218
SWIDTH 284 0
DWIDTH 7 0
BBX 6 8 0 -4
BITMAP
7C
7C
7C
7C
1C
3C
F8
70
ENDCHAR
STARTCHAR quotedblleft
ENCODING 8220
SWIDTH 547 0
DWIDTH 14 0
BBX 12 9 1 9
BITMAP
1830
78F0
F1E0
E1C0
E1C0
F9F0
F9F0
F9F0
F9F0
ENDCHAR
STARTCHAR quotedblright
ENCODING 8221
SWIDTH 547 0
DWIDTH 14 0
BBX 12 10 1 8
BITMAP
F9F0
F9F0
F9F0
F9F0
3870
3870
78F0
F1E0
F1E0
C180
ENDCHAR
STARTCHAR quotedblbase
ENCODING 8222
SWIDTH 546 0
DWIDTH 14 0
BBX 12 8 1 -4
BITMAP
F9F0
F9F0
F9F0
F9F0
3870
78F0
F1E0
E1C0
ENDCHAR
STARTCHAR dagger
ENCODING 8224
SWIDTH 410 0
DWIDTH 10 0
BBX 8 12 1 6
BITMAP
1C
18
18
FF
FF
99
18
18
18
18
18
18
ENDCHAR
STARTCHAR daggerdbl
ENCODING 8225
SWIDTH 430 0
DWIDTH 11 0
BBX 9 18 1 0
BITMAP
1C00
1C00
1C00
FF80
FF80
D980
1800
1C00
1C00
1C00
1C00
1800
D980
FF80
FF80
1C00
1C00
1C00
ENDCHAR
STARTCHAR bullet
ENCODING 8226
SWIDTH 500 0
DWIDTH 13 0
BBX 8 8 2 5
BITMAP
3C
7F
FF
FF
FF
FF
7F
3C
ENDCHAR
STARTCHAR ellipsis
ENCODING 8230
SWIDTH 840 0
DWIDTH 21 0
BBX 19 4 1 0
BITMAP
F9F3E0
F9F3E0
F9F3E0
F9F3E0
ENDCHAR
STARTCHAR perthousand
ENCODING 8240
SWIDTH 1295 0
DWIDTH 32 0
BBX 30 18 1 0
BITMAP
3E01E000
7F03C000
7F038000
E7878000
E38F0000
E39E0000
F79C0000
7F380000
7F780000
3EF3E1F0
00E7F3F8
01CFFFFC
03CE3F1C
078E3F1C
0F0E3F1C
0E0FFFFC
1E07F3F8
3C03E1F0
ENDCHAR
STARTCHAR guilsinglleft
ENCODING 8249
SWIDTH 357 0
DWIDTH 9 0
BBX 7 12 1 1
BITMAP
18
1E
3E
7C
F8
F0
F0
F8
7C
3E
1E
18
ENDCHAR
STARTCHAR guilsinglright
ENCODING 8250
SWIDTH 357 0
DWIDTH 9 0
BBX 7 12 1 1
BITMAP
30
F0
F8
7C
3E
1E
1E
3E
7C
F8
F0
30
ENDCHAR
STARTCHAR fraction
ENCODING 8260
SWIDTH 501 0
DWIDTH 13 0
BBX 16 21 -2 -2
BITMAP
000F
001E
003C
003C
0078
0078
00F0
00F0
01E0
01E0
03C0
0780
0780
0F00
0F00
1E00
1E00
3C00
3C00
7800
F000
ENDCHAR
STARTCHAR trademark
ENCODING 8482
SWIDTH 695 0
DWIDTH 17 0
BBX 15 8 1 10
BITMAP
FDC6
FDCE
31FE
31FE
31B6
31B6
31A6
3186
ENDCHAR
STARTCHAR Omega.dup5
ENCODING 8486
SWIDTH 808 0
DWIDTH 20 0
BBX 20 18 0 0
BITMAP
0FC3F0
1FC7F0
3FCFF0
3FCFF0
FFFFF0
FFFFF0
FFFFF0
FFFFF0
3E0F80
3E0F80
3E0F80
3E0F80
3E0F80
3E0F80
3E0F80
3E0F80
3E0F80
3E0F80
ENDCHAR
STARTCHAR fraction.dup6
ENCODING 8725
SWIDTH 501 0
DWIDTH 13 0
BBX 16 21 -2 -2
BITMAP
000F
001E
003C
003C
0078
0078
00F0
00F0
01E0
01E0
03C0
0780
0780
0F00
0F00
1E00
1E00
3C00
3C00
7800
F000
ENDCHAR
STARTCHAR periodcentered.dup7
ENCODING 8729
SWIDTH 284 0
DWIDTH 7 0
BBX 5 4 1 6
BITMAP
F8
F8
F8
F8
ENDCHAR
STARTCHAR radical
ENCODING 8730
SWIDTH 1108 0
DWIDTH 28 0
BBX 26 18 0 0
BITMAP
0FC3F7C0
1FC7F7C0
3FCFF7C0
3FCFF7C0
FFFFF7C0
FFFFF7C0
FFFFF7C0
FFFFF7C0
3E0F87C0
3E0F87C0
3E0F87C0
3E0F87C0
3E0F87C0
3E0F87C0
3E0F87C0
3E0F87C0
3E0F87C0
3E0F87C0
ENDCHAR
STARTCHAR approxequal
ENCODING 8776
SWIDTH 1108 0
DWIDTH 28 0
BBX 26 18 0 0
BITMAP
0FC3F7C0
1FC7F7C0
3FCFF7C0
3E4F97C0
FFFFF7C0
FFFFF7C0
FFFFF7C0
FFFFF7C0
3E0F87C0
3E0F87C0
3E0F87C0
3E0F87C0
3E0F87C0
3E0F87C0
3E0F87C0
3E0F87C0
3E0F87C0
3E0F87C0
ENDCHAR
STARTCHAR fi
ENCODING 64257
SWIDTH 704 0
DWIDTH 18 0
BBX 17 18 0 0
BITMAP
0FCF80
1FCF80
3FCF80
3F4F80
FFCF80
FFCF80
FFCF80
FFCF80
3E0F80
3E0F80
3E0F80
3E0F80
3E0F80
3E0F80
3E0F80
3E0F80
3E0F80
3E0F80
ENDCHAR
STARTCHAR fl
ENCODING 64258
SWIDTH 704 0
DWIDTH 18 0
BBX 17 18 0 0
BITMAP
0FCF80
1FCF80
3FCF80
3FCF80
FFCF80
FFCF80
FFCF80
FFCF80
3E0F80
3E0F80
3E0F80
3E0F80
3E0F80
3E0F80
3E0F80
3E0F80
3E0F80
3E0F80
ENDCHAR
STARTCHAR .notdef
ENCODING -1
SWIDTH 500 0
DWIDTH 13 0
BBX 1 1 0 0
BITMAP
00
ENDCHAR
STARTCHAR NUL
ENCODING -1
SWIDTH 0 0
DWIDTH 0 0
BBX 1 1 0 0
BITMAP
00
ENDCHAR
STARTCHAR nonmarkingreturn
ENCODING -1
SWIDTH 277 0
DWIDTH 7 0
BBX 1 1 0 0
BITMAP
00
ENDCHAR
STARTCHAR apple
ENCODING -1
SWIDTH 967 0
DWIDTH 24 0
BBX 20 22 3 -3
BITMAP
FFFFE0
FFDFE0
FFDFE0
FFFFE0
FFFFE0
FFEFE0
FFFFE0
FFFFE0
886620
CAADB0
88CF70
CE6F70
FFFFF0
FFFFF0
FFFFF0
FFFFF0
FFFFF0
FFD7F0
FFFFF0
000000
000000
FF76E0
ENDCHAR
ENDFONT
